<?xml version="1.0" standalone="no"?>
<!DOCTYPE svg PUBLIC "-//W3C//DTD SVG 20010904//EN"
 "http://www.w3.org/TR/2001/REC-SVG-20010904/DTD/svg10.dtd">
<svg version="1.0" xmlns="http://www.w3.org/2000/svg"
 width="128.000000pt" height="128.000000pt" viewBox="0 0 128.000000 128.000000"
 preserveAspectRatio="xMidYMid meet">
<metadata>
Created by potrace 1.11, written by Peter Selinger 2001-2013
</metadata>
<g transform="translate(0.000000,128.000000) scale(0.100000,-0.100000)"
fill="#000000" stroke="none">
<path d="M573 1273 c9 -2 23 -2 30 0 6 3 -1 5 -18 5 -16 0 -22 -2 -12 -5z"/>
<path d="M693 1273 c9 -2 23 -2 30 0 6 3 -1 5 -18 5 -16 0 -22 -2 -12 -5z"/>
<path d="M770 1266 c0 -3 19 -10 43 -16 165 -44 324 -176 403 -335 19 -38 32
-59 28 -45 -35 132 -194 295 -349 359 -72 29 -125 45 -125 37z"/>
<path d="M348 1209 c-21 -11 -38 -22 -38 -24 0 -5 79 32 89 41 12 11 -18 1
-51 -17z"/>
<path d="M238 1136 c-50 -41 -115 -113 -132 -146 -4 -8 7 3 26 25 43 52 84 93
133 132 22 18 37 32 33 33 -3 0 -30 -20 -60 -44z"/>
<path d="M70 929 c-12 -23 -20 -43 -18 -45 3 -2 14 17 26 41 27 56 20 60 -8 4z"/>
<path d="M315 953 c-121 -27 -199 -83 -244 -175 -43 -87 -49 -148 -22 -236 36
-119 140 -210 261 -228 58 -8 42 8 -24 24 -136 35 -208 156 -192 327 8 86 43
163 94 205 38 32 128 70 163 70 11 0 17 5 14 10 -6 10 -16 11 -50 3z"/>
<path d="M31 839 c-6 -18 -11 -37 -10 -43 0 -6 7 7 15 28 8 22 12 41 10 43 -2
2 -9 -10 -15 -28z"/>
<path d="M358 836 c-60 -22 -84 -42 -108 -91 -32 -66 -31 -177 1 -236 39 -68
68 -84 157 -84 l77 0 3 83 3 82 -61 0 -60 0 0 45 0 45 126 0 125 0 -2 -105
c-1 -58 1 -108 3 -111 3 -2 15 19 28 48 28 65 30 153 6 224 -22 66 -38 80
-116 98 -79 19 -133 19 -182 2z"/>
<path d="M1261 794 c0 -11 3 -14 6 -6 3 7 2 16 -1 19 -3 4 -6 -2 -5 -13z"/>
<path d="M2 695 c0 -16 2 -22 5 -12 2 9 2 23 0 30 -3 6 -5 -1 -5 -18z"/>
<path d="M1040 695 c-26 -32 13 -81 48 -59 34 22 22 74 -18 74 -10 0 -23 -7
-30 -15z"/>
<path d="M773 673 c-7 -2 -13 -18 -13 -34 0 -26 -4 -29 -30 -29 -25 0 -30 -4
-30 -25 0 -21 5 -25 30 -25 l30 0 0 -75 c0 -97 15 -115 95 -115 52 0 55 1 55
24 0 22 -5 25 -42 28 l-43 3 -3 68 -3 67 46 0 c41 0 45 2 45 25 0 23 -4 25
-45 25 -45 0 -45 0 -45 35 0 35 -12 43 -47 28z"/>
<path d="M980 585 c0 -21 5 -25 30 -25 l30 0 0 -70 0 -70 -35 0 c-31 0 -35 -3
-35 -25 l0 -25 100 0 100 0 0 25 c0 21 -5 25 -30 25 l-29 0 -3 93 -3 92 -62 3
c-62 3 -63 2 -63 -23z"/>
<path d="M2 575 c0 -16 2 -22 5 -12 2 9 2 23 0 30 -3 6 -5 -1 -5 -18z"/>
<path d="M21 479 c-1 -18 20 -82 25 -77 2 2 -3 24 -11 48 -7 25 -14 38 -14 29z"/>
<path d="M1256 464 c-4 -14 -5 -28 -3 -31 3 -2 8 8 11 23 4 14 5 28 3 31 -3 2
-8 -8 -11 -23z"/>
<path d="M1236 405 c-9 -26 -7 -32 5 -12 6 10 9 21 6 23 -2 3 -7 -2 -11 -11z"/>
<path d="M50 384 c0 -15 66 -122 107 -172 56 -69 183 -157 253 -176 14 -4 -7
9 -46 29 -121 62 -219 157 -283 274 -17 31 -31 51 -31 45z"/>
<path d="M1185 300 c-45 -88 -196 -211 -315 -259 -30 -12 -42 -19 -25 -16 88
19 236 119 301 206 43 57 68 99 60 99 -3 0 -12 -13 -21 -30z"/>
<path d="M448 23 c7 -3 16 -2 19 1 4 3 -2 6 -13 5 -11 0 -14 -3 -6 -6z"/>
<path d="M490 10 c8 -5 20 -10 25 -10 6 0 3 5 -5 10 -8 5 -19 10 -25 10 -5 0
-3 -5 5 -10z"/>
</g>
</svg>
